<?xml version="1.0" encoding="UTF-8"?>
<!DOCTYPE svg  PUBLIC '-//W3C//DTD SVG 1.1//EN'  'http://www.w3.org/Graphics/SVG/1.1/DTD/svg11.dtd'>
<svg width="563px" height="593px" style="background-color:transparent;background:transparent;color-scheme:light" version="1.1" viewBox="-.5 -.5 563 593" xmlns="http://www.w3.org/2000/svg">
<g data-cell-id="0">
<g data-cell-id="1">
<g data-cell-id="PFBn4CSoOeZe6V791jFj-24">
<ellipse cx="283" cy="307" rx="237" ry="237" fill="none" pointer-events="all" stroke="light-dark(rgb(76, 194, 82), rgb(25, 127, 30))" stroke-width="60"/>
</g>
<g data-cell-id="fhxVx3K8NqMsA5-0Zk03-26"/>
<g data-cell-id="fhxVx3K8NqMsA5-0Zk03-28">
<g data-cell-id="fhxVx3K8NqMsA5-0Zk03-19"/>
</g>
<g data-cell-id="Ej2qtFnRxsT4_wubRCbx-45">
<g data-cell-id="Ej2qtFnRxsT4_wubRCbx-34">
<g data-cell-id="Ej2qtFnRxsT4_wubRCbx-40"/>
</g>
</g>
<g data-cell-id="fU1-47J7kBbSLipv5JW9-1">
<g data-cell-id="Ej2qtFnRxsT4_wubRCbx-3"/>
</g>
<g data-cell-id="eXjVU_qjxOIp8GCGwoS--1">
<g data-cell-id="eXjVU_qjxOIp8GCGwoS--4"/>
</g>
<g data-cell-id="-xULWSr8b6Be4CQYj1xP-1">
<g data-cell-id="-xULWSr8b6Be4CQYj1xP-4"/>
</g>
<g data-cell-id="MWea1-m6Z1EAUETx2ulx-1">
<g data-cell-id="MWea1-m6Z1EAUETx2ulx-4"/>
</g>
<g data-cell-id="LJ-WXCbPecUipf4mNpAJ-4"/>
<g data-cell-id="PFBn4CSoOeZe6V791jFj-4">
<g data-cell-id="PFBn4CSoOeZe6V791jFj-7">
<ellipse cx="284.5" cy="66.5" rx="65.5" ry="65.5" fill="light-dark(rgb(76, 194, 82), rgb(25, 127, 30))" pointer-events="all"/>
</g>
</g>
<g data-cell-id="PFBn4CSoOeZe6V791jFj-9">
<ellipse cx="259.5" cy="50" rx="11" ry="11" fill="light-dark(rgb(0, 0, 0), rgb(237, 237, 237))" pointer-events="all" stroke="light-dark(rgb(0, 0, 0), rgb(255, 255, 255))"/>
</g>
<g data-cell-id="PFBn4CSoOeZe6V791jFj-10">
<path d="m328.34 104.5c-7.26 19.42-25.75 32.35-46.48 32.5-20.74 0.15-39.41-12.52-46.94-31.83" fill="none" pointer-events="all" stroke="light-dark(rgb(0, 0, 0), rgb(255, 255, 255))" stroke-miterlimit="10" stroke-width="17"/>
</g>
<g data-cell-id="PFBn4CSoOeZe6V791jFj-11">
<path transform="rotate(180 285.14 58)" d="m337.08 70.13c-6.05 22.6-28.02 38.3-52.96 37.86-24.95-0.44-46.26-16.91-51.39-39.71" fill="none" pointer-events="all" stroke="light-dark(rgb(0, 0, 0), rgb(237, 237, 237))" stroke-miterlimit="10" stroke-width="17"/>
</g>
<g data-cell-id="PFBn4CSoOeZe6V791jFj-12">
<rect transform="rotate(-10,239.5,47.83)" x="238.5" y="46.83" width="2" height="2" fill="light-dark(rgb(0, 0, 0), rgb(237, 237, 237))" pointer-events="all"/>
</g>
<g data-cell-id="PFBn4CSoOeZe6V791jFj-13">
<path transform="rotate(-10,240.65,48.15)" d="m239.65 48.65 0.4-1h1.6l-0.4 1z" fill="light-dark(rgb(0, 0, 0), rgb(237, 237, 237))" pointer-events="all"/>
</g>
<g data-cell-id="PFBn4CSoOeZe6V791jFj-15">
<path d="m319.18 110.04c-17.62-4.39-28.69-22.52-24.97-40.93 3.73-18.4 20.88-30.39 38.72-27.06" fill="none" pointer-events="all" stroke="light-dark(rgb(0, 0, 0), rgb(237, 237, 237))" stroke-miterlimit="10" stroke-width="17"/>
</g>
<g data-cell-id="PFBn4CSoOeZe6V791jFj-8">
<path d="m328.64 113.58c100.07 24.01 166.09 119.42 153.29 221.53-12.79 102.11-100.31 178.29-203.21 176.87-102.9-1.41-188.28-79.96-198.27-182.39-9.98-102.42 58.63-195.98 159.33-217.23" fill="none" pointer-events="all" stroke="light-dark(rgb(0, 0, 0), rgb(255, 255, 255))" stroke-miterlimit="10" stroke-width="17"/>
</g>
<g data-cell-id="PFBn4CSoOeZe6V791jFj-14">
<path d="m330.82 41.49c139.41 25.61 236.03 153.64 222.42 294.73-13.61 141.08-132.93 248.28-274.66 246.76-141.74-1.51-258.73-111.25-269.32-252.59-10.58-141.34 88.76-267.28 228.68-289.89" fill="none" pointer-events="all" stroke="light-dark(rgb(0, 0, 0), rgb(255, 255, 255))" stroke-miterlimit="10" stroke-width="17"/>
</g>
</g>
<g data-cell-id="fhxVx3K8NqMsA5-0Zk03-27">
<g data-cell-id="eokxgDh78_3vVcb0cFAp-6">
<g data-cell-id="eokxgDh78_3vVcb0cFAp-5">
<g data-cell-id="eokxgDh78_3vVcb0cFAp-4"/>
<g data-cell-id="eokxgDh78_3vVcb0cFAp-3"/>
</g>
</g>
</g>
</g>
</svg>
